Coordinates
version=1
nRows=13
nColumns=34
inDegrees=yes

Units are S.I. units (second, meters, Newtons, ...)
If the header above contains a line with 'inDegrees', this indicates whether rotational values are in degrees (yes) or radians (no).

endheader
time	pelvis_tilt	pelvis_list	pelvis_rotation	pelvis_tx	pelvis_ty	pelvis_tz	hip_flexion_r	hip_adduction_r	hip_rotation_r	knee_angle_r	ankle_angle_r	subtalar_angle_r	mtp_angle_r	hip_flexion_l	hip_adduction_l	hip_rotation_l	knee_angle_l	ankle_angle_l	subtalar_angle_l	mtp_angle_l	lumbar_extension	lumbar_bending	lumbar_rotation	arm_flex_r	arm_add_r	arm_rot_r	elbow_flex_r	pro_sup_r	arm_flex_l	arm_add_l	arm_rot_l	elbow_flex_l	pro_sup_l
      0.00000000	     -1.11222551	     -1.32001030	     -2.50303585	      1.70637342	      0.86477576	     -0.04809394	      1.63137871	     -4.67698615	     -9.86908063	      6.46923234	      1.91379163	    -12.32641257	      0.00000000	     -0.67363543	     -6.10915834	     -5.30916719	      3.97197527	      8.19266863	     -3.51843745	      0.00000000	     -7.45158406	      2.20708814	     -2.12732612	     10.44199814	     -7.37856420	     36.97057897	     69.66065981	     89.62801498	      6.71644894	     -4.96453401	     33.59984132	     59.68879648	     78.47471491
      0.01666670	     -2.30443197	     -1.48701267	     -2.00687303	      1.70747743	      0.86311357	     -0.04918069	      2.76165639	     -4.04731921	     -9.43018225	      6.37879914	      4.48241673	    -11.92655174	      0.00000000	      1.17229094	     -6.05715640	     -5.04744120	      3.87274284	      9.27133389	     -2.22861104	      0.00000000	     -5.53701972	      2.78260863	     -2.81842500	      9.87359405	     -6.98276385	     35.45390894	     69.03348235	     89.16148831	      6.04841259	     -5.14081868	     32.92539370	     59.52881694	     78.18558039
      0.03333330	     -2.37407529	     -0.95171701	     -1.82850258	      1.70710442	      0.86286379	     -0.04885710	      2.48353144	     -4.57353550	     -9.98051751	      5.49541485	      4.64280758	    -11.57360910	      0.00000000	      1.14651316	     -5.58828459	     -5.32825796	      3.47330868	      9.24901798	     -1.38729023	      0.00000000	     -5.40939809	      2.08988024	     -2.64486169	      9.87152267	     -6.54366877	     34.62808587	     68.31533586	     89.06229030	      6.55067997	     -5.62622717	     32.50825703	     59.25980666	     78.04444445
      0.05000000	     -2.29164417	     -0.63768982	     -1.52516783	      1.70703249	      0.86366932	     -0.04857485	      2.04918511	     -4.92879973	     -9.92421178	      4.86186261	      4.86931518	    -11.52506378	      0.00000000	      0.74300956	     -5.28701424	     -5.09318157	      2.92096866	      9.14787431	     -1.26330124	      0.00000000	     -5.29531393	      1.53992135	     -2.48544378	      9.61236723	     -6.52681852	     34.72499038	     68.29570243	     89.08428338	      6.82171153	     -5.94311510	     32.41938734	     59.21816014	     78.06559821
      0.06666670	     -1.54018600	     -0.52739222	     -1.37000975	      1.70700847	      0.86512647	     -0.04842488	      0.87883311	     -4.99414842	    -10.08891375	      4.25218064	      4.92016013	    -11.28736954	      0.00000000	     -0.50498882	     -5.13113591	     -4.80073528	      2.09474921	      8.64903641	     -1.34557679	      0.00000000	     -6.22512209	      1.44505144	     -2.26988179	      9.73222918	     -6.67900705	     35.11312039	     68.98280219	     89.18266377	      7.41323298	     -6.07926781	     33.19401714	     59.24278925	     78.43047286
      0.08333330	     -1.12102656	     -0.45120866	     -1.16307599	      1.70714197	      0.86586503	     -0.04827222	      0.17661487	     -4.97563286	    -10.04419730	      3.88430452	      5.08602152	    -11.31230512	      0.00000000	     -1.11223247	     -5.04325687	     -4.30066623	      1.78175856	      8.54305637	     -1.56108801	      0.00000000	     -6.67328397	      1.32498051	     -2.05526778	      9.70604015	     -7.03771020	     35.90666291	     70.08528800	     89.27016274	      7.93519255	     -6.25348251	     34.32897450	     59.41124354	     79.00124994
      0.10000000	     -1.05600658	     -0.42620310	     -1.08055048	      1.70719411	      0.86578210	     -0.04798118	      0.00438833	     -4.93190983	     -9.93121733	      3.75220045	      5.16128089	    -11.32038270	      0.00000000	     -1.17058524	     -5.04678106	     -4.17627853	      1.81179442	      8.43124779	     -1.51137352	      0.00000000	     -6.56204006	      1.24926557	     -2.02211792	      9.62665637	     -6.91826769	     36.08051735	     70.22372079	     89.27928170	      8.08059669	     -6.19819587	     34.42899311	     59.45913097	     79.06322525
      0.11666670	     -1.01375349	     -0.40012397	     -0.92748829	      1.70712484	      0.86567868	     -0.04791023	     -0.11172953	     -4.90439949	     -9.88756438	      3.71483115	      5.17948387	    -11.33991485	      0.00000000	     -1.20377230	     -5.03096676	     -4.13024898	      1.76609207	      8.38339204	     -1.51493208	      0.00000000	     -6.55065290	      1.21031980	     -1.98628843	      9.59622234	     -6.90381951	     36.20037089	     70.31668567	     89.28517932	      8.11432296	     -6.21909183	     34.49991383	     59.45351825	     79.09644690
      0.13333330	     -0.28444747	     -0.41026980	     -0.81659453	      1.70678035	      0.86632070	     -0.04787340	     -1.16886738	     -4.80067789	     -9.70238562	      3.22452028	      4.89521966	    -11.96156847	      0.00000000	     -2.11248930	     -5.02100183	     -3.48451920	      1.51858074	      7.84223904	     -2.26560778	      0.00000000	     -7.52527873	      1.18886060	     -1.81537927	      9.93828983	     -7.91835283	     38.16015193	     72.01834638	     89.28789854	      9.13352164	     -6.60715501	     36.62321044	     59.29637296	     80.11233290
      0.15000000	     -0.27810534	     -0.39803778	     -0.81334422	      1.70663606	      0.86627706	     -0.04776561	     -1.16339782	     -4.79266812	     -9.70251752	      3.22190911	      4.89487857	    -11.96217609	      0.00000000	     -2.11772218	     -5.02440776	     -3.48216730	      1.51965689	      7.83940038	     -2.26406974	      0.00000000	     -7.52257603	      1.18880636	     -1.81637042	      9.93472486	     -7.91943550	     38.16172920	     72.01918679	     89.28772966	      9.13426215	     -6.60951333	     36.62413075	     59.29564317	     80.11344747
      0.16666670	     -0.20690178	     -0.43771908	     -0.74844183	      1.70675152	      0.86645360	     -0.04756028	     -1.29022658	     -4.69764965	     -9.71019852	      3.16491887	      4.88989427	    -12.03349264	      0.00000000	     -2.20115467	     -5.11132749	     -3.33469062	      1.51205529	      7.62572272	     -2.15728191	      0.00000000	     -7.45077763	      1.13746419	     -1.85776970	      9.73256106	     -8.03366851	     38.26956869	     72.07140759	     89.28332711	      9.17415617	     -6.85096399	     36.65234230	     59.22401906	     80.15961643
      0.18333330	      0.01787107	     -0.45517450	     -0.50474657	      1.70699211	      0.86715660	     -0.04781306	     -1.79974338	     -4.60894635	     -9.83777376	      2.71143265	      4.32876113	    -12.47698369	      0.00000000	     -2.58125662	     -5.14268010	     -2.96095265	      1.13668955	      7.13459493	     -2.25278556	      0.00000000	     -7.74354702	      1.23758113	     -2.05371822	      9.74358322	     -8.31899616	     38.82498921	     72.77941270	     89.20559095	      9.41087908	     -7.00265193	     37.47907158	     59.01650511	     80.60484728
      0.20000000	      0.01809005	     -0.45132619	     -0.50518938	      1.70702319	      0.86747247	     -0.04785358	     -1.79996497	     -4.60846731	     -9.83792200	      2.71091124	      4.32918984	    -12.47758453	      0.00000000	     -2.58034154	     -5.14613477	     -2.96084013	      1.13613973	      7.13432918	     -2.25288004	      0.00000000	     -7.74373295	      1.23774913	     -2.05349140	      9.74299807	     -8.32047075	     38.82506326	     72.77907620	     89.20551810	      9.41089481	     -7.00386242	     37.47910148	     59.01623801	     80.60506516
